<svg xmlns="http://www.w3.org/2000/svg" version="1.1" xmlns:xlink="http://www.w3.org/1999/xlink" width="1000" height="1000"><metadata><rdf:RDF xmlns:rdf="http://www.w3.org/1999/02/22-rdf-syntax-ns#" xmlns:dc="http://purl.org/dc/elements/1.1/"><rdf:Description><dc:creator>RealFaviconGenerator</dc:creator><dc:source>https://realfavicongenerator.net</dc:source></rdf:Description></rdf:RDF></metadata><g clip-path="url(#SvgjsClipPath1364)"><rect width="1000" height="1000" fill="#ffffff"></rect><g transform="matrix(1.953125,0,0,1.953125,0,0)"><svg xmlns="http://www.w3.org/2000/svg" width="512" height="512" viewBox="0 0 512 512" fill="none"><g clip-path="url(#clip0_599_274)">
<rect width="512" height="512" fill="#EBFDB7"></rect>
<path d="M252.742 289.227C238.94 297.169 229.37 305.828 224.031 315.203C218.693 324.578 216.023 336.102 216.023 349.773C216.023 352.508 215.633 354.396 214.852 355.438C214.07 356.479 212.378 357 209.773 357H164.266C158.536 357 155.672 353.289 155.672 345.867C155.672 328.159 159.253 312.339 166.414 298.406C173.706 284.474 186.466 272.039 204.695 261.102C190.893 253.419 180.021 243.003 172.078 229.852C164.266 216.701 160.359 202.768 160.359 188.055V184.93C160.359 181.805 161.01 179.396 162.312 177.703C167.781 170.542 175.789 162.794 186.336 154.461C188.159 153.159 189.786 152.508 191.219 152.508C192.911 152.508 194.539 153.159 196.102 154.461C201.701 158.758 206.388 162.794 210.164 166.57C214.07 170.346 217.391 174.057 220.125 177.703C221.427 179.396 222.078 181.805 222.078 184.93V188.055C222.078 206.674 232.885 221.062 254.5 231.219C264.396 225.75 271.362 219.435 275.398 212.273C279.565 205.112 281.648 197.039 281.648 188.055V184.93C281.648 181.805 282.299 179.396 283.602 177.703C288.81 170.542 296.622 162.794 307.039 154.461C308.732 153.159 310.294 152.508 311.727 152.508C313.419 152.508 314.982 153.159 316.414 154.461C321.883 158.758 326.505 162.794 330.281 166.57C334.057 170.346 337.247 174.057 339.852 177.703C341.154 179.396 341.805 181.805 341.805 184.93V188.055C341.805 204.201 338.224 218.133 331.062 229.852C323.901 241.57 314.526 251.271 302.938 258.953C319.083 268.068 330.867 280.112 338.289 295.086C345.711 309.93 349.422 326.857 349.422 345.867C349.422 350.294 348.901 353.289 347.859 354.852C346.818 356.284 344.539 357 341.023 357H294.539C289.982 357 287.703 353.875 287.703 347.625C287.703 339.161 286.857 331.609 285.164 324.969C283.602 318.328 280.346 312.143 275.398 306.414C270.451 300.555 262.898 294.826 252.742 289.227Z" fill="#191918"></path>
<path d="M285.782 154.405C267.181 159.599 262.105 165.981 258.003 189.479C257.637 191.507 255.363 191.507 254.997 189.479C250.895 165.981 245.819 159.599 227.218 154.405C225.594 153.959 225.594 151.041 227.218 150.595C245.819 145.401 250.895 139.019 254.997 115.521C255.363 113.493 257.637 113.493 258.003 115.521C262.105 139.019 267.181 145.401 285.782 150.595C287.406 151.041 287.406 153.959 285.782 154.405Z" fill="#191918"></path>
</g><defs>
<clipPath id="clip0_599_274">
<rect width="512" height="512" fill="white"></rect>
</clipPath>
<clipPath id="SvgjsClipPath1364"><rect width="1000" height="1000" x="0" y="0" rx="500" ry="500"></rect></clipPath></defs></svg></g></g></svg>